<?xml version="1.0" encoding="UTF-8"?><svg id="Layer_2" xmlns="http://www.w3.org/2000/svg" width="160" height="38" viewBox="0 0 160 38"><defs><style>.cls-1{fill:#fdd839;}.cls-2{fill:#fff;}</style></defs><g id="Layer_1-2"><g><g><rect x=".15" y=".15" width="159.7" height="37.7" rx="5.11" ry="5.11"/><path class="cls-2" d="m154.74.3c2.73,0,4.96,2.22,4.96,4.96v27.48c0,2.73-2.22,4.96-4.96,4.96H5.26c-2.73,0-4.96-2.22-4.96-4.96V5.26C.3,2.52,2.52.3,5.26.3h149.48m0-.3H5.26C2.37,0,0,2.37,0,5.26v27.48c0,2.89,2.37,5.26,5.26,5.26h149.48c2.89,0,5.26-2.37,5.26-5.26V5.26c0-2.89-2.37-5.26-5.26-5.26h0Z"/></g><g><g><path class="cls-2" d="m16.32,15.23v6.61c0,.62.07,1.09.22,1.41.26.56.78.84,1.56.84.99,0,1.67-.4,2.03-1.19.19-.43.28-1,.28-1.7v-5.97h2.95v10.97h-2.83v-1.55s-.1.13-.2.3c-.11.17-.24.32-.39.44-.46.4-.89.68-1.32.83-.42.15-.92.22-1.49.22-1.64,0-2.75-.58-3.32-1.75-.32-.64-.48-1.59-.48-2.85v-6.61h2.98Z"/><rect class="cls-1" x="13.86" y="11.55" width="8.89" height="1.8"/></g><g><path class="cls-2" d="m31.02,24.75v-11.5h3.81c1.23,0,2.3.24,3.22.73.91.49,1.62,1.16,2.12,2.02.5.86.75,1.85.75,2.99s-.25,2.12-.75,2.99-1.21,1.55-2.12,2.04c-.91.49-1.99.73-3.22.73h-3.81Zm2.13-1.85h1.72c.79,0,1.48-.16,2.06-.49.58-.32,1.03-.78,1.35-1.36.32-.58.49-1.27.49-2.06s-.16-1.49-.49-2.07-.78-1.02-1.35-1.34c-.58-.32-1.27-.48-2.06-.48h-1.72v7.79Z"/><path class="cls-2" d="m46.48,24.93c-.88,0-1.64-.2-2.3-.59-.66-.39-1.17-.92-1.53-1.59-.37-.67-.55-1.41-.55-2.22s.19-1.59.56-2.24.88-1.17,1.52-1.55c.64-.38,1.36-.57,2.15-.57.67,0,1.26.11,1.76.32.51.22.94.51,1.29.89.35.38.63.82.81,1.3s.28,1.02.28,1.58c0,.14,0,.29-.02.45-.02.15-.04.29-.09.4h-6.58v-1.54h5.42l-.97.73c.09-.47.07-.89-.07-1.27-.14-.37-.37-.66-.69-.88-.32-.22-.7-.32-1.15-.32s-.81.11-1.14.32c-.33.21-.59.52-.76.93-.17.41-.24.9-.2,1.47-.04.51.03.97.21,1.37.18.4.45.7.81.92.36.22.78.32,1.25.32s.87-.1,1.2-.29c.33-.2.59-.46.77-.79l1.66.8c-.17.4-.43.76-.78,1.06-.35.31-.77.55-1.26.73s-1.02.26-1.61.26Z"/><path class="cls-2" d="m52.03,24.75v-8.39h1.93v1.94l-.22-.32c.16-.61.47-1.06.94-1.36s1.02-.45,1.66-.45c.7,0,1.32.18,1.85.54s.88.83,1.03,1.42l-.58.05c.26-.67.65-1.17,1.17-1.5.52-.33,1.12-.5,1.8-.5.61,0,1.15.13,1.62.4.47.27.85.64,1.12,1.12.27.48.41,1.03.41,1.66v5.4h-2.05v-4.92c0-.37-.07-.69-.2-.96s-.32-.48-.56-.63c-.24-.15-.53-.22-.88-.22-.32,0-.61.07-.86.22-.25.15-.44.36-.58.63-.14.27-.2.59-.2.96v4.92h-2.05v-4.92c0-.37-.07-.69-.2-.96s-.33-.48-.57-.63c-.25-.15-.53-.22-.87-.22s-.61.07-.86.22c-.25.15-.44.36-.58.63s-.2.59-.2.96v4.92h-2.05Z"/><path class="cls-2" d="m70.66,24.93c-.84,0-1.6-.19-2.28-.57-.68-.38-1.23-.9-1.63-1.56-.4-.66-.6-1.41-.6-2.25s.2-1.59.6-2.25c.4-.66.94-1.18,1.62-1.56.68-.38,1.44-.57,2.29-.57s1.59.19,2.27.57c.68.38,1.22.9,1.62,1.55.4.65.6,1.41.6,2.26s-.2,1.59-.61,2.25c-.41.66-.95,1.18-1.63,1.56-.68.38-1.43.57-2.26.57Zm0-1.85c.46,0,.86-.11,1.21-.32s.63-.52.83-.9.31-.82.31-1.3-.1-.93-.31-1.3c-.2-.38-.48-.67-.83-.89-.35-.22-.75-.33-1.21-.33s-.88.11-1.24.33c-.36.22-.63.52-.84.89-.2.38-.31.81-.31,1.3s.1.92.31,1.3c.2.39.48.69.84.9.35.22.77.32,1.24.32Z"/><path class="cls-1" d="m83.61,24.93c-.81,0-1.56-.19-2.23-.57-.67-.38-1.21-.9-1.61-1.56-.4-.66-.6-1.4-.6-2.24s.2-1.59.6-2.24.93-1.17,1.6-1.54,1.41-.56,2.24-.56,1.58.19,2.25.56,1.19.89,1.58,1.54.59,1.4.59,2.24-.2,1.59-.6,2.25c-.4.66-.93,1.18-1.6,1.55s-1.41.56-2.22.56Zm0-1.62c.5,0,.94-.12,1.33-.35.39-.24.69-.56.92-.98s.34-.89.34-1.41-.11-.99-.34-1.4c-.22-.41-.53-.74-.92-.97-.39-.24-.83-.35-1.33-.35s-.93.12-1.32.35c-.39.24-.7.56-.92.97-.22.41-.34.88-.34,1.4s.11,1,.34,1.41c.22.42.53.74.92.98.39.24.83.35,1.32.35Z"/><path class="cls-1" d="m89.75,24.75v-8.35h1.69v1.64l-.2-.22c.21-.52.54-.92,1-1.2.46-.27.99-.41,1.6-.41s1.18.13,1.66.4.86.64,1.13,1.11c.27.47.41,1.02.41,1.64v5.39h-1.75v-4.92c0-.42-.08-.78-.24-1.07s-.38-.52-.67-.68c-.29-.16-.61-.24-.98-.24s-.69.08-.98.24c-.29.16-.51.39-.67.69-.16.3-.23.65-.23,1.07v4.92h-1.77Z"/><path class="cls-1" d="m106.21,24.93c-.87,0-1.64-.18-2.31-.54-.67-.36-1.2-.85-1.58-1.48-.38-.63-.57-1.34-.57-2.14v-7.51h1.85v7.44c0,.5.11.95.34,1.34.22.39.53.69.92.91s.84.32,1.35.32.98-.11,1.37-.32.7-.52.92-.91c.22-.39.34-.84.34-1.34v-7.44h1.83v7.51c0,.8-.19,1.52-.56,2.14-.38.63-.9,1.12-1.57,1.48-.67.36-1.45.54-2.33.54Z"/><path class="cls-1" d="m114.18,24.75v-6.77h-1.57v-1.57h1.57v-.43c0-.63.13-1.15.39-1.58.26-.43.62-.75,1.09-.98s1-.34,1.61-.34c.11,0,.25,0,.39.02s.27.03.36.05v1.51c-.08-.02-.18-.03-.28-.04-.1,0-.19,0-.25,0-.47,0-.85.11-1.13.32-.28.21-.42.56-.42,1.04v.43h4.06v1.57h-4.06v6.77h-1.75Zm6.12,0v-6.77h-1.55v-1.57h1.55v-.43c0-.63.13-1.15.4-1.58.27-.43.63-.75,1.1-.98s.99-.34,1.59-.34c.13,0,.26,0,.41.02s.27.03.36.05v1.51c-.09-.02-.19-.03-.29-.04-.1,0-.19,0-.26,0-.47,0-.84.11-1.12.32s-.41.56-.41,1.04v.43h4.06v1.57h-4.06v6.77h-1.77Zm4.98,0v-8.35h1.77v8.35h-1.77Z"/><path class="cls-1" d="m128.56,24.75v-1.44l4.98-5.94.28.6h-5.03v-1.57h6.59v1.42l-4.92,5.96-.28-.62h5.22v1.59h-6.84Z"/><path class="cls-1" d="m136.35,24.75v-1.44l4.98-5.94.28.6h-5.03v-1.57h6.59v1.42l-4.92,5.96-.28-.62h5.22v1.59h-6.84Z"/><path class="cls-1" d="m144.9,15.26v-2.01h1.77v2.01h-1.77Zm0,9.49v-8.35h1.77v8.35h-1.77Z"/></g></g></g></g></svg>