<svg id="Layer_1" data-name="Layer 1" xmlns="http://www.w3.org/2000/svg" xmlns:xlink="http://www.w3.org/1999/xlink" viewBox="0 0 256 256"><defs><style>.cls-1{fill:none;}.cls-2{clip-path:url(#clip-path);}.cls-3{fill:#fff;}.cls-4{fill:#fed626;}</style><clipPath id="clip-path"><rect class="cls-1" width="256" height="256"/></clipPath></defs><g class="cls-2"><rect width="256" height="256" rx="10"/><path class="cls-3" d="M103.43,81.87v81c0,7.64.89,13.38,2.72,17.29,3.17,6.82,9.5,10.23,18.81,10.23q18,0,24.63-14.58,3.42-7.86,3.42-20.83V81.87h35.72V216.22H154.47v-19c-.32.45-1.14,1.64-2.47,3.73a23.74,23.74,0,0,1-4.69,5.42c-5.51,4.93-10.82,8.27-15.95,10.1a54,54,0,0,1-18.05,2.71q-29.82,0-40.21-21.45c-3.86-7.89-5.76-19.5-5.83-34.9v-81Z"/><rect class="cls-4" x="73.67" y="36.82" width="107.65" height="22.09"/></g></svg>